<svg xmlns="http://www.w3.org/2000/svg" width="760" height="260" viewBox="0 0 760 260">
  <rect width="760" height="260" fill="#f8fafc"/>
  <g font-family="Arial, sans-serif" font-size="16" fill="#111827">
    <text x="40" y="35">卷积核像小模板，在输入上寻找局部模式</text>
    <rect x="70" y="70" width="180" height="180" fill="#ffffff" stroke="#94a3b8"/>
    <g stroke="#94a3b8">
      <line x1="130" y1="70" x2="130" y2="250"/><line x1="190" y1="70" x2="190" y2="250"/>
      <line x1="70" y1="130" x2="250" y2="130"/><line x1="70" y1="190" x2="250" y2="190"/>
    </g>
    <rect x="70" y="70" width="120" height="120" fill="#dbeafe" stroke="#2563eb" stroke-width="3" opacity="0.7"/>
    <text x="95" y="105">1</text><text x="155" y="105">0</text><text x="95" y="165">0</text><text x="155" y="165">1</text>
    <text x="300" y="150">×</text>
    <rect x="350" y="90" width="120" height="120" fill="#fef3c7" stroke="#d97706"/>
    <line x1="410" y1="90" x2="410" y2="210" stroke="#d97706"/><line x1="350" y1="150" x2="470" y2="150" stroke="#d97706"/>
    <text x="377" y="127">1</text><text x="437" y="127">0</text><text x="377" y="187">0</text><text x="437" y="187">1</text>
    <text x="520" y="150">→ 响应值 2</text>
  </g>
</svg>
